<?xml version="1.0" encoding="utf-8"?><!DOCTYPE svg PUBLIC "-//W3C//DTD SVG 1.1//EN" "http://www.w3.org/Graphics/SVG/1.1/DTD/svg11.dtd"><svg version="1.1" xmlns="http://www.w3.org/2000/svg" x="0px" y="0px" viewBox="0 0 1000 1000" enable-background="new 0 0 1000 1000" xml:space="preserve"><g transform="translate(0.000000,511.000000) scale(0.100000,-0.100000)"><path d="M4367.6,4987.2c-28-16.3-88.7-221.7-198.4-665.1l-161-641.7l-196-63c-107.3-35-296.4-112-420.1-170.3l-224-107.3l-555.4,333.7c-305.7,184.4-574.1,333.7-595.1,333.7c-51.3,0-914.8-863.4-914.8-914.8c0-21,149.3-289.4,333.7-595.1l333.7-555.4l-107.3-224c-58.3-123.7-135.3-312.7-172.7-420.1l-65.3-198.4L785.5,940.8c-487.7-121.4-646.4-170.4-662.7-203c-30.3-53.7-30.3-1201.8,0-1255.5c16.3-32.7,175-81.7,665.1-203l641.7-161l60.7-186.7c32.7-102.7,109.7-291.7,170.4-420l109.7-233.4l-333.7-555.4c-184.4-305.7-333.7-574.1-333.7-595.1c0-51.3,863.4-914.8,914.8-914.8c21,0,289.4,149.4,595.1,333.7l555.4,333.7l210-100.3c116.7-53.7,305.7-130.7,420.1-170.4l210-70l161-641.7c121.4-490.1,170.4-648.7,203-665.1c53.7-30.3,1201.8-30.3,1255.5,0c32.7,16.3,81.7,175,203,665.1l161,641.7l210,70c114.4,39.7,303.4,116.7,417.7,172.7l207.7,100.3l557.7-333.7c308-184.4,576.4-336,597.4-336c51.3,0,914.8,863.4,914.8,914.8c0,21-151.7,289.4-336,597.4l-333.7,557.7l100.3,207.7c56,114.4,133,303.4,172.7,417.7l70,210l641.7,161c490.1,121.3,648.7,170.4,665.1,203c30.3,53.7,30.3,1201.8,0,1255.5c-16.3,32.7-175,81.7-665.1,203l-641.7,161l-70,210c-39.7,114.3-116.7,303.4-170.4,420.1l-100.3,210l333.7,555.4c184.3,305.7,333.7,574.1,333.7,595.1c0,51.3-863.4,914.8-914.8,914.8c-21,0-289.4-149.3-595.1-333.7l-555.4-333.7l-233.4,109.7c-128.3,60.7-317.4,137.7-420,170.4l-186.7,60.7l-161,641.7c-121.3,490.1-170.4,648.7-203,665.1C5574.1,5017.6,4416.6,5017.6,4367.6,4987.2z M5630.1,4140.2c86.3-345.4,168-634.7,177.3-644.1c11.7-11.7,116.7-46.7,231-81.7c116.7-35,340.7-128.3,499.4-205.4c233.4-114.3,296.4-135.3,338.4-116.7c25.7,11.7,277.7,161,557.7,329c280,168,515.7,305.7,525.1,305.7c21,0,658.1-637.1,658.1-658.1c0-9.3-137.7-245-305.7-525.1c-168-280-317.4-532.1-329-557.7c-18.7-42,2.3-105,116.7-338.4c77-158.7,170.3-382.7,205.4-499.4c35-114.3,70-219.4,81.7-231c9.3-11.7,298.7-91,644.1-177.4l625.4-156.4l7-469l4.7-469.1l-86.3-23.3c-49-14-324.4-81.7-611.4-154c-287-72.3-539.1-140-560.1-151.7c-21-9.3-65.3-116.7-102.7-238c-37.4-119-128.3-347.7-207.7-506.4c-114.3-233.4-135.4-296.4-116.7-338.4c11.7-25.7,161-277.7,329-557.7c168-280,305.7-515.8,305.7-525.1c0-21-637.1-658.1-658.1-658.1c-9.3,0-245,137.7-525.1,305.7c-280,168-532.1,317.4-557.7,329c-42,18.7-105-2.3-338.4-116.7c-158.7-79.3-387.4-170.3-506.4-207.7c-121.3-37.3-228.7-81.7-238-102.7c-11.7-21-79.3-273-151.7-560.1c-72.3-287.1-140-562.4-154-611.4l-23.3-86.3l-469.1,4.7l-471.4,7l-156.4,627.8c-86.3,343-165.7,632.4-177.4,644.1c-9.3,9.3-112,44.3-228.7,79.3c-114.3,35-340.7,128.3-499.4,205.4c-233.4,114.3-296.4,135.4-338.4,116.7c-25.7-11.7-277.7-161-557.7-329c-280-168-515.7-305.7-525.1-305.7c-21,0-658.1,637.1-658.1,658.1c0,9.3,137.7,245,305.7,525.1c168,280,317.4,532.1,329,557.7c18.7,42-2.3,105-116.7,338.4c-79.4,158.7-170.4,387.4-207.7,506.4c-37.3,128.3-81.7,228.7-105,240.4c-21,11.7-310.4,88.7-641.7,170.4L344.4-361.4v473.7V586l627.7,156.4c345.4,86.3,634.8,170.4,646.4,189c9.3,16.3,46.7,119,79.3,228.7c35,109.7,126,329,203,487.7c114.3,233.4,135.3,296.4,116.7,338.4c-11.7,25.7-161,277.7-329,557.7c-168,280-305.7,515.7-305.7,525.1c0,21,637.1,658.1,658.1,658.1c9.3,0,245-137.7,525.1-305.7c280-168,532.1-317.4,562.4-331.4c42-21,88.7-4.7,280,95.7c123.7,65.3,350,161,504.1,212.4c151.7,51.3,280,98,287,105c7,4.7,79.3,282.4,161,613.8c84,331.4,156.3,616.1,161,632.4c9.3,23.3,116.7,28,480.7,23.3l471.4-7L5630.1,4140.2z"/><path d="M4554.3,2280.3c-429.4-88.7-807.4-294-1117.8-606.7c-940.4-938.1-851.8-2478.3,189-3299.7c1054.8-833.1,2602-543.7,3285.7,616.1c182,310.4,275.4,616.1,298.7,994.1C7298.6,1426.2,5966.1,2579,4554.3,2280.3z M5336,2058.6c399-70,721.1-233.4,1022.1-520.4c289.4-277.7,478.4-599.7,571.7-977.8c58.3-240.4,53.7-690.7-9.3-928.8c-102.7-382.7-268.4-667.4-548.4-935.8c-394.4-385-821.4-555.4-1372.2-555.4c-581.1,2.3-1029.1,193.7-1428.2,611.4c-413,434.1-609.1,1010.4-536.7,1584.5c56,445.7,228.7,809.8,536.7,1131.8C4043.2,1960.5,4678,2172.9,5336,2058.6z"/></g></svg>